<?xml version="1.0" encoding="UTF-8" standalone="no" ?>
<!DOCTYPE svg PUBLIC "-//W3C//DTD SVG 1.1//EN" "http://www.w3.org/Graphics/SVG/1.1/DTD/svg11.dtd">
<svg xmlns="http://www.w3.org/2000/svg" xmlns:xlink="http://www.w3.org/1999/xlink" version="1.1" width="1080" height="1080" viewBox="0 0 1080 1080" xml:space="preserve">
<desc>Created with Fabric.js 5.2.4</desc>
<defs>
</defs>
<g transform="matrix(1 0 0 1 540 540)" id="bef92a8e-7194-4e56-9528-cc8c5ba76f02"  >
<rect style="stroke: none; stroke-width: 1; stroke-dasharray: none; stroke-linecap: butt; stroke-dashoffset: 0; stroke-linejoin: miter; stroke-miterlimit: 4; fill: rgb(255,255,255); fill-rule: nonzero; opacity: 1; visibility: hidden;" vector-effect="non-scaling-stroke"  x="-540" y="-540" rx="0" ry="0" width="1080" height="1080" />
</g>
<g transform="matrix(1 0 0 1 540 540)" id="cd4d924e-ae96-483a-9263-51c5e8855e92"  >
</g>
<g transform="matrix(1.13 0 0 1.13 540 540)"  >
<path style="stroke: none; stroke-width: 1; stroke-dasharray: none; stroke-linecap: butt; stroke-dashoffset: 0; stroke-linejoin: miter; stroke-miterlimit: 4; fill: rgb(0,0,0); fill-rule: nonzero; opacity: 1;"  transform=" translate(-528.84, 528.84)" d="M 216 -135.869 Q 182.713 -135.869 159.291 -159.291 Q 135.869 -182.713 135.869 -216 L 135.869 -388.304 Q 173.478 -390.304 199.087 -416.72799999999995 Q 224.695 -443.15199999999993 224.695 -479.99999999999994 Q 224.695 -516.848 199.087 -543.2719999999999 Q 173.47799999999998 -569.6959999999999 135.86899999999997 -571.6959999999999 L 135.86899999999997 -744 Q 135.86899999999997 -777.287 159.29099999999997 -800.7090000000001 Q 182.71299999999997 -824.1310000000001 215.99999999999997 -824.1310000000001 L 377.06499999999994 -824.1310000000001 Q 379.6959999999999 -865.0870000000001 409.0249999999999 -893.4460000000001 Q 438.3539999999999 -921.8050000000002 479.7749999999999 -921.8050000000002 Q 521.1959999999999 -921.8050000000002 550.7499999999999 -893.6060000000002 Q 580.3039999999999 -865.4070000000003 582.935 -824.1310000000002 L 744 -824.1310000000002 Q 777.287 -824.1310000000002 800.7090000000001 -800.7090000000002 Q 824.1310000000001 -777.2870000000001 824.1310000000001 -744.0000000000002 L 824.1310000000001 -582.9350000000002 Q 865.0870000000001 -580.3040000000002 893.4460000000001 -550.9750000000001 Q 921.8050000000002 -521.6460000000002 921.8050000000002 -480.22500000000014 Q 921.8050000000002 -438.8040000000001 893.6060000000002 -409.2500000000001 Q 865.4070000000003 -379.69600000000014 824.1310000000002 -377.0650000000001 L 824.1310000000002 -216 Q 824.1310000000002 -182.713 800.7090000000002 -159.291 Q 777.2870000000001 -135.869 744.0000000000002 -135.869 L 216 -135.869 Z M 218.87 -218.87 L 741.13 -218.87 L 741.13 -741.13 L 218.87 -741.13 L 218.87 -632.478 Q 261 -609.848 284.467 -568.7059999999999 Q 307.935 -527.5649999999999 307.935 -479.9999999999999 Q 307.935 -430.9899999999999 284.467 -389.8319999999999 Q 261 -348.674 218.87 -327.283 L 218.87 -218.87 Z M 480 -480 Z" stroke-linecap="round" />
</g>
</svg>